<svg width="16" height="15" fill="none" xmlns="http://www.w3.org/2000/svg">
  <path d="M8.5 0a7.5 7.5 0 0 0-4 14.4l.1-1.7 1-4.1-.3-1.2c0-1.1.7-2 1.5-2a1 1 0 0 1 1 1.2c0 .6-.4 1.7-.7 2.6a1.2 1.2 0 0 0 1.2 1.5c1.4 0 2.4-1.9 2.4-4 0-1.7-1.1-2.9-3.1-2.9a3.6 3.6 0 0 0-3.7 3.6c0 .5.1 1 .5 1.5a.4.4 0 0 1 .1.4 27.9 27.9 0 0 1-.3.8.3.3 0 0 1-.2 0c-1-.4-1.6-1.6-1.6-2.9 0-2.1 1.8-4.7 5.4-4.7 2.8 0 4.7 2.1 4.7 4.3 0 3-1.6 5.2-4 5.2a2.1 2.1 0 0 1-1.8-1L6 13a6 6 0 0 1-.7 1.7 7.2 7.2 0 0 0 5-.3A7.5 7.5 0 0 0 8.5.1Z" fill="#fff"/>
</svg>
