<svg xmlns="http://www.w3.org/2000/svg" xmlns:xlink="http://www.w3.org/1999/xlink"><symbol id="icon-arrow-right">
  <path d="M0 5.5h29m0 0L23.5 1M29 5.5 23.5 10" stroke="#fff"/>
</symbol><symbol id="icon-bag">
  <path d="M14 5a4 4 0 1 1-8 0M1 1h18v16H1V1Z" stroke="currentColor" stroke-width="2" stroke-linecap="round" stroke-linejoin="round"/>
</symbol><symbol id="icon-brown-arrow-left">
  <path d="M30 5.5H1m0 0L6.5 10M1 5.5 6.5 1" stroke="#A87B62"/>
</symbol><symbol id="icon-brown-arrow-right">
  <path d="M0 5.5h29m0 0L23.5 1M29 5.5 23.5 10" stroke="#A87B62"/>
</symbol><symbol id="icon-fb">
  <path d="M5.3 8.6h2l.7-3H5.3V4.1c0-.7 0-1.5 1.6-1.5H8V.1L5.8 0c-2 0-3.5 1.2-3.5 3.5v2.1H0v3h2.3V15h3V8.6Z" fill="#fff"/>
</symbol><symbol id="icon-insta">
  <path d="M7.5 0a52.2 52.2 0 0 1 5 .4c.4.2.8.4 1.2.9.4.3.7.8 1 1.3l.3 1.8a54.4 54.4 0 0 1-.4 8c-.2.5-.5 1-.9 1.3-.3.4-.8.7-1.3 1l-1.8.3a54.4 54.4 0 0 1-8-.4c-.5-.2-1-.5-1.3-.9-.4-.3-.7-.8-1-1.3L0 10.6a54.4 54.4 0 0 1 .4-8c.2-.5.5-1 .9-1.3.3-.4.8-.7 1.3-1L4.4 0h3.1Zm0 3.8a3.8 3.8 0 1 0 0 7.5 3.8 3.8 0 0 0 0-7.6Zm4.9-.2a1 1 0 1 0-1.9 0 1 1 0 0 0 1.9 0ZM7.5 5.2a2.2 2.2 0 1 1 0 4.5 2.2 2.2 0 0 1 0-4.4Z" fill="#fff"/>
</symbol><symbol id="icon-logo">
  <path fill-rule="evenodd" clip-rule="evenodd" d="M10.1 10.1 33 .6l22.9 9.5L65.4 33l-9.5 22.9L33 65.4l-22.9-9.5L.6 33l9.5-22.9ZM33 0l23.3 9.7L66 33l-9.7 23.3L33 66 9.7 56.3 0 33 9.7 9.7 33 0Zm-4.4 26.4-2.3-.2c-1.5 0-2.8.3-4 .9a6.7 6.7 0 0 0-2.8 2.4c-.7 1-1 2.2-1 3.6a6.8 6.8 0 0 0 3.8 6.2 10.5 10.5 0 0 0 6.3.7l2-.8.2-.2v-.3l.3-2.4h-.2c-.5 1.2-1 2-1.7 2.6-.8.6-1.7.9-3 .9-1 0-2-.3-3-1-1-.5-1.7-1.3-2.3-2.4-.5-1-.8-2.1-.8-3.4 0-1.3.3-2.4.8-3.4S22 28 23 27.3c1-.5 2-.8 3.2-.8 2.3 0 3.8 1.2 4.5 3.6h.2l-.2-2.5-.1-.4-.2-.1c-.6-.3-1.2-.6-1.8-.7Zm19.3 13.3-.1-.1-1.2-.1a.8.8 0 0 1-.5-.4l-.2-1v-10c0-.3 0-.6.2-.8 0-.2.2-.4.5-.5h1.2V26.4h-1a32.9 32.9 0 0 1-3.1 0h-1.1v.2l1.3.1.5.5.1 1v4.3h-8.3v-4.4c0-.4 0-.7.2-1l.5-.4h1.2V26.4h-1a36.3 36.3 0 0 1-3 0H33v.2l1.2.1c.3.1.4.3.5.5l.2.9V38c0 .4 0 .8-.2 1 0 .2-.3.3-.5.4a5 5 0 0 1-1.2 0V39.9H38v-.2l-1.2-.1a.8.8 0 0 1-.5-.4l-.2-1v-5h8.3v5l-.1 1-.5.4a5 5 0 0 1-1.3 0V39.9H47.8Z" fill="#A87B62"/>
</symbol><symbol id="icon-pinterest">
  <path d="M8.5 0a7.5 7.5 0 0 0-4 14.4l.1-1.7 1-4.1-.3-1.2c0-1.1.7-2 1.5-2a1 1 0 0 1 1 1.2c0 .6-.4 1.7-.7 2.6a1.2 1.2 0 0 0 1.2 1.5c1.4 0 2.4-1.9 2.4-4 0-1.7-1.1-2.9-3.1-2.9a3.6 3.6 0 0 0-3.7 3.6c0 .5.1 1 .5 1.5a.4.4 0 0 1 .1.4 27.9 27.9 0 0 1-.3.8.3.3 0 0 1-.2 0c-1-.4-1.6-1.6-1.6-2.9 0-2.1 1.8-4.7 5.4-4.7 2.8 0 4.7 2.1 4.7 4.3 0 3-1.6 5.2-4 5.2a2.1 2.1 0 0 1-1.8-1L6 13a6 6 0 0 1-.7 1.7 7.2 7.2 0 0 0 5-.3A7.5 7.5 0 0 0 8.5.1Z" fill="#fff"/>
</symbol><symbol id="icon-search">
  <path d="m11 10 3 3-1 1-3-3a6.2 6.2 0 1 1 1-1Zm-1.3-.4a4.8 4.8 0 0 0-3.5-8.2 4.8 4.8 0 1 0 3.4 8.3v-.1Z" fill="#000"/>
</symbol><symbol id="icon-twitter">
  <path d="m15 1.5-1.8.6C14 1.6 14.4 1 14.6.2a6 6 0 0 1-2 .8A3 3 0 0 0 9 .3c-.6.4-1 1-1.3 1.6-.3.7-.4 1.4-.2 2.1C6.2 4 5 3.6 3.9 3S1.9 1.6 1 .6A3.4 3.4 0 0 0 2 5a3 3 0 0 1-1.4-.4c0 .8.2 1.5.7 2 .4.7 1 1 1.8 1.2a3 3 0 0 1-1.4 0c.2.7.6 1.3 1 1.7a3 3 0 0 0 1.9.7A6 6 0 0 1 0 11.5c1.4 1 3 1.5 4.7 1.5 5.7 0 8.8-5 8.8-9.3v-.5c.6-.4 1-1 1.5-1.7Z" fill="#fff"/>
</symbol><symbol id="icon-x">
  <path d="M7 5.4 12.4 0 14 1.6 8.6 7l5.4 5.4-1.6 1.6L7 8.6 1.6 14 0 12.4 5.4 7 0 1.6 1.6 0 7 5.4Z" fill="#1D1613"/>
</symbol></svg>