<svg width="66" height="66" fill="none" xmlns="http://www.w3.org/2000/svg">
  <path fill-rule="evenodd" clip-rule="evenodd" d="M10.1 10.1 33 .6l22.9 9.5L65.4 33l-9.5 22.9L33 65.4l-22.9-9.5L.6 33l9.5-22.9ZM33 0l23.3 9.7L66 33l-9.7 23.3L33 66 9.7 56.3 0 33 9.7 9.7 33 0Zm-4.4 26.4-2.3-.2c-1.5 0-2.8.3-4 .9a6.7 6.7 0 0 0-2.8 2.4c-.7 1-1 2.2-1 3.6a6.8 6.8 0 0 0 3.8 6.2 10.5 10.5 0 0 0 6.3.7l2-.8.2-.2v-.3l.3-2.4h-.2c-.5 1.2-1 2-1.7 2.6-.8.6-1.7.9-3 .9-1 0-2-.3-3-1-1-.5-1.7-1.3-2.3-2.4-.5-1-.8-2.1-.8-3.4 0-1.3.3-2.4.8-3.4S22 28 23 27.3c1-.5 2-.8 3.2-.8 2.3 0 3.8 1.2 4.5 3.6h.2l-.2-2.5-.1-.4-.2-.1c-.6-.3-1.2-.6-1.8-.7Zm19.3 13.3-.1-.1-1.2-.1a.8.8 0 0 1-.5-.4l-.2-1v-10c0-.3 0-.6.2-.8 0-.2.2-.4.5-.5h1.2V26.4h-1a32.9 32.9 0 0 1-3.1 0h-1.1v.2l1.3.1.5.5.1 1v4.3h-8.3v-4.4c0-.4 0-.7.2-1l.5-.4h1.2V26.4h-1a36.3 36.3 0 0 1-3 0H33v.2l1.2.1c.3.1.4.3.5.5l.2.9V38c0 .4 0 .8-.2 1 0 .2-.3.3-.5.4a5 5 0 0 1-1.2 0V39.9H38v-.2l-1.2-.1a.8.8 0 0 1-.5-.4l-.2-1v-5h8.3v5l-.1 1-.5.4a5 5 0 0 1-1.3 0V39.9H47.8Z" fill="#A87B62"/>
</svg>
