<svg width="15" height="15" fill="none" xmlns="http://www.w3.org/2000/svg">
  <path d="M7.5 0a52.2 52.2 0 0 1 5 .4c.4.2.8.4 1.2.9.4.3.7.8 1 1.3l.3 1.8a54.4 54.4 0 0 1-.4 8c-.2.5-.5 1-.9 1.3-.3.4-.8.7-1.3 1l-1.8.3a54.4 54.4 0 0 1-8-.4c-.5-.2-1-.5-1.3-.9-.4-.3-.7-.8-1-1.3L0 10.6a54.4 54.4 0 0 1 .4-8c.2-.5.5-1 .9-1.3.3-.4.8-.7 1.3-1L4.4 0h3.1Zm0 3.8a3.8 3.8 0 1 0 0 7.5 3.8 3.8 0 0 0 0-7.6Zm4.9-.2a1 1 0 1 0-1.9 0 1 1 0 0 0 1.9 0ZM7.5 5.2a2.2 2.2 0 1 1 0 4.5 2.2 2.2 0 0 1 0-4.4Z" fill="#fff"/>
</svg>
